<svg version="1.1" height="" viewBox="0 0 290 140" preserveAspectRatio="xMidYMid slice" xmlns="http://www.w3.org/2000/svg">
  <defs></defs>
  <style type="text/css">

text.f0 {font-family:cmr12;font-size:14.346196px}
text.f1 {font-family:cmr10;font-size:9.96264px}

</style>
  <g id="page1" transform="matrix(1, 0, 0, 1, -99, -53)">
    <text class="f0" x="235.004825" y="60.147479" transform="matrix(0.7 0 0 0.7 37.5895 20.55485)" style="white-space: pre;">Input(C/C++)</text>
    <path d="M247.11353 91.4648H227.18775C224.9846 91.4648 223.2034 93.25 223.2034 95.4492V108.4023C223.2034 110.6015 224.9846 112.3867 227.18775 112.3867H247.11353C249.3128 112.3867 251.0979 110.6015 251.0979 108.4023V95.4492C251.0979 93.25 249.3128 91.4648 247.11353 91.4648Z" fill="#808080" fill-opacity="0.5"></path>
    <path d="M244.96875 89.3203H225.04296C222.8398 89.3203 221.0586 91.1055 221.0586 93.3047V106.2578C221.0586 108.457 222.8398 110.2422 225.04296 110.2422H244.96875C247.168 110.2422 248.9531 108.457 248.9531 106.2578V93.3047C248.9531 91.1055 247.168 89.3203 244.96875 89.3203Z" fill="#69baf9"></path>
    <path d="M244.96875 89.3203H225.04296C222.8398 89.3203 221.0586 91.1055 221.0586 93.3047V106.2578C221.0586 108.457 222.8398 110.2422 225.04296 110.2422H244.96875C247.168 110.2422 248.9531 108.457 248.9531 106.2578V93.3047C248.9531 91.1055 247.168 89.3203 244.96875 89.3203Z" stroke="#000" fill="none" stroke-width="0.79701" stroke-miterlimit="10"></path>
    <text class="f1" x="235.004825" y="60.147479" transform="matrix(0.7 0 0 0.7 62.3655 59.42175)" style="white-space: pre;">Cling</text>
    <path d="M157.7034 91.4648H105.235C103.035 91.4648 101.25 93.25 101.25 95.4492V108.4023C101.25 110.6015 103.035 112.3867 105.235 112.3867H157.7034C159.9065 112.3867 161.6878 110.6015 161.6878 108.4023V95.4492C161.6878 93.25 159.9065 91.4648 157.7034 91.4648Z" fill="#808080" fill-opacity="0.5"></path>
    <path d="M155.5586 89.3203H103.09C100.887 89.3203 99.105 91.1055 99.105 93.3047V106.2578C99.105 108.457 100.887 110.2422 103.09 110.2422H155.5586C157.7617 110.2422 159.543 108.457 159.543 106.2578V93.3047C159.543 91.1055 157.7617 89.3203 155.5586 89.3203Z" fill="#fffdd9"></path>
    <path d="M155.5586 89.3203H103.09C100.887 89.3203 99.105 91.1055 99.105 93.3047V106.2578C99.105 108.457 100.887 110.2422 103.09 110.2422H155.5586C157.7617 110.2422 159.543 108.457 159.543 106.2578V93.3047C159.543 91.1055 157.7617 89.3203 155.5586 89.3203Z" stroke="#000" fill="none" stroke-width="0.79701" stroke-miterlimit="10"></path>
    <text class="f1" x="248.011592" y="60.147479" transform="matrix(0.7 0 0 0.7 -63.0745 55.04405)" style="white-space: pre;">Compilation<tspan x="259.634707" y="72.102647">(clang)</tspan>
</text>
    <path d="M362.985 91.4648H316.594C314.3948 91.4648 312.6096 93.25 312.6096 95.4492V108.4023C312.6096 110.6015 314.3948 112.3867 316.594 112.3867H362.985C365.184 112.3867 366.969 110.6015 366.969 108.4023V95.4492C366.969 93.25 365.184 91.4648 362.985 91.4648Z" fill="#808080" fill-opacity="0.5"></path>
    <path d="M360.836 89.3203H314.4492C312.25 89.3203 310.4648 91.1055 310.4648 93.3047V106.2578C310.4648 108.457 312.25 110.2422 314.4492 110.2422H360.836C363.039 110.2422 364.824 108.457 364.824 106.2578V93.3047C364.824 91.1055 363.039 89.3203 360.836 89.3203Z" fill="#69baf9"></path>
    <path d="M360.836 89.3203H314.4492C312.25 89.3203 310.4648 91.1055 310.4648 93.3047V106.2578C310.4648 108.457 312.25 110.2422 314.4492 110.2422H360.836C363.039 110.2422 364.824 108.457 364.824 106.2578V93.3047C364.824 91.1055 363.039 89.3203 360.836 89.3203Z" stroke="#000" fill="none" stroke-width="0.79701" stroke-miterlimit="10"></path>
    <text class="f1" x="235.004825" y="60.147479" transform="matrix(0.7 0 0 0.7 148.2865 60.09975)" style="white-space: pre;">T<tspan x="241.369855">ransformations</tspan>
</text>
    <path d="M141.4299 154.0586H121.504C119.305 154.0586 117.52 155.8437 117.52 158.0429V170.9962C117.52 173.1952 119.305 174.9802 121.504 174.9802H141.4299C143.6331 174.9802 145.4143 173.1952 145.4143 170.9962V158.0429C145.4143 155.8437 143.6331 154.0586 141.4299 154.0586Z" fill="#808080" fill-opacity="0.5"></path>
    <path d="M139.2852 151.9141H119.359C117.16 151.9141 115.375 153.6992 115.375 155.8984V168.8515C115.375 171.0505 117.16 172.8355 119.359 172.8355H139.2852C141.4844 172.8355 143.2695 171.0505 143.2695 168.8515V155.8984C143.2695 153.6992 141.4844 151.9141 139.2852 151.9141Z" fill="#969adb"></path>
    <path d="M139.2852 151.9141H119.359C117.16 151.9141 115.375 153.6992 115.375 155.8984V168.8515C115.375 171.0505 117.16 172.8355 119.359 172.8355H139.2852C141.4844 172.8355 143.2695 171.0505 143.2695 168.8515V155.8984C143.2695 153.6992 141.4844 151.9141 139.2852 151.9141Z" stroke="#000" fill="none" stroke-width="0.79701" stroke-miterlimit="10"></path>
    <text class="f1" x="235.973407" y="60.147479" transform="matrix(0.7 0 0 0.7 -45.6415 118.46975)" style="white-space: pre;">LL<tspan x="247.319766">VM</tspan>
<tspan x="241.992522" y="72.102647">JIT</tspan>
</text>
    <path d="M270.3088 154.0586H203.9885C201.7893 154.0586 200.0042 155.8398 200.0042 158.0429V170.9922C200.0042 173.1952 201.7893 174.9802 203.9885 174.9802H270.3088C272.512 174.9802 274.2971 173.1952 274.2971 170.9922V158.0429C274.2971 155.8398 272.512 154.0586 270.3088 154.0586Z" fill="#808080" fill-opacity="0.5"></path>
    <path d="M268.1641 151.9141H201.8437C199.6445 151.9141 197.8594 153.6953 197.8594 155.8984V168.8475C197.8594 171.0505 199.6445 172.8355 201.8437 172.8355H268.1641C270.3672 172.8355 272.1523 171.0505 272.1523 168.8475V155.8984C272.1523 153.6953 270.3672 151.9141 268.1641 151.9141Z" fill="#969adb"></path>
    <path d="M268.1641 151.9141H201.8437C199.6445 151.9141 197.8594 153.6953 197.8594 155.8984V168.8475C197.8594 171.0505 199.6445 172.8355 201.8437 172.8355H268.1641C270.3672 172.8355 272.1523 171.0505 272.1523 168.8475V155.8984C272.1523 153.6953 270.3672 151.9141 268.1641 151.9141Z" stroke="#000" fill="none" stroke-width="0.79701" stroke-miterlimit="10"></path>
    <text class="f1" x="235.004825" y="60.147479" transform="matrix(0.7 0 0 0.7 35.6805 122.01375)" style="white-space: pre;">MC<tspan x="254.653402">(x86,</tspan>
<tspan x="279.836825">NVPTX,</tspan>
<tspan x="322.316513">...)</tspan>
</text>
    <path d="M349.754 134.2148H329.8284C327.6292 134.2148 325.844 136 325.844 138.1992V151.1523C325.844 153.3515 327.6292 155.1367 329.8284 155.1367H349.754C351.953 155.1367 353.739 153.3515 353.739 151.1523V138.1992C353.739 136 351.953 134.2148 349.754 134.2148Z" fill="#808080" fill-opacity="0.5"></path>
    <path d="M347.609 132.0703H327.6836C325.4844 132.0703 323.6992 133.8555 323.6992 136.0547V149.0078C323.6992 151.207 325.4844 152.9922 327.6836 152.9922H347.609C349.809 152.9922 351.594 151.207 351.594 149.0078V136.0547C351.594 133.8555 349.809 132.0703 347.609 132.0703Z" fill="#5ac2a0"></path>
    <path d="M347.609 132.0703H327.6836C325.4844 132.0703 323.6992 133.8555 323.6992 136.0547V149.0078C323.6992 151.207 325.4844 152.9922 327.6836 152.9922H347.609C349.809 152.9922 351.594 151.207 351.594 149.0078V136.0547C351.594 133.8555 349.809 132.0703 347.609 132.0703Z" stroke="#000" fill="none" stroke-width="0.79701" stroke-miterlimit="10"></path>
    <text class="f1" x="235.004825" y="60.147479" transform="matrix(0.7 0 0 0.7 165.6355 102.81075)" style="white-space: pre;">CPU</text>
    <path d="M350.965 163.9802H328.6174C326.4182 163.9802 324.6331 165.7612 324.6331 167.9652V180.9182C324.6331 183.1172 326.4182 184.9022 328.6174 184.9022H350.965C353.164 184.9022 354.949 183.1172 354.949 180.9182V167.9652C354.949 165.7612 353.164 163.9802 350.965 163.9802Z" fill="#808080" fill-opacity="0.5"></path>
    <path d="M348.82 161.8355H326.4727C324.2734 161.8355 322.4883 163.6175 322.4883 165.8205V178.7695C322.4883 180.9725 324.2734 182.7575 326.4727 182.7575H348.82C351.02 182.7575 352.805 180.9725 352.805 178.7695V165.8205C352.805 163.6175 351.02 161.8355 348.82 161.8355Z" fill="#5ac2a0"></path>
    <path d="M348.82 161.8355H326.4727C324.2734 161.8355 322.4883 163.6175 322.4883 165.8205V178.7695C322.4883 180.9725 324.2734 182.7575 326.4727 182.7575H348.82C351.02 182.7575 352.805 180.9725 352.805 178.7695V165.8205C352.805 163.6175 351.02 161.8355 348.82 161.8355Z" stroke="#000" fill="none" stroke-width="0.79701" stroke-miterlimit="10"></path>
    <text class="f1" x="235.004825" y="60.147479" transform="matrix(0.7 0 0 0.7 160.3085 132.57475)" style="white-space: pre;">GPGPU</text>
    <path d="M235.003901 70.4766V84.9023" stroke="#000" fill="none" stroke-width="0.79701" stroke-miterlimit="10"></path>
    <path d="M235.003901 85.93748C235.26562 84.640604 235.781245 83.34764 236.6875 81.79295C235.523433 83.34764 234.488276 83.34764 233.32031 81.79295C234.226558 83.34764 234.746089 84.640604 235.003901 85.93748Z"></path>
    <path d="M235.003901 85.93748C235.26562 84.640604 235.781245 83.34764 236.6875 81.79295C235.523433 83.34764 234.488276 83.34764 233.32031 81.79295C234.226558 83.34764 234.746089 84.640604 235.003901 85.93748Z" stroke="#000" fill="none" stroke-width="0.79701" stroke-miterlimit="10" stroke-linejoin="bevel"></path>
    <path d="M248.07428 78.406268C248.07428 75.753923 245.92192 73.601577 243.265658 73.601577C240.613316 73.601577 238.460977 75.753923 238.460977 78.406268C238.460977 81.06252 240.613316 83.210953 243.265658 83.210953C245.92192 83.210953 248.07428 81.06252 248.07428 78.406268Z" stroke="#000" fill="none" stroke-width="0.27895" stroke-miterlimit="10"></path>
    <text class="f1" x="233.786676" y="56.937303" transform="matrix(0.7 0 0 0.7 77.8721 40.79799)" style="white-space: pre;">1</text>
    <path d="M216.6367 99.7813H163.9609" stroke="#000" fill="none" stroke-width="0.79701" stroke-miterlimit="10"></path>
    <path d="M217.6723 99.781205C216.379333 99.523392 215.08246 99.003861 213.52777 98.09761C215.08246 99.26558 215.08246 100.300736 213.52777 101.4648C215.08246 100.558549 216.379333 100.039017 217.6723 99.781205Z"></path>
    <path d="M217.6723 99.781205C216.379333 99.523392 215.08246 99.003861 213.52777 98.09761C215.08246 99.26558 215.08246 100.300736 213.52777 101.4648C215.08246 100.558549 216.379333 100.039017 217.6723 99.781205Z" stroke="#000" fill="none" stroke-width="0.79701" stroke-miterlimit="10" stroke-linejoin="bevel"></path>
    <path d="M162.9253 99.781288C164.222178 100.043006 165.51515 100.558631 167.06983 101.46488C165.51515 100.300819 165.51515 99.265663 167.06983 98.09769C165.51515 99.003944 164.222178 99.523475 162.9253 99.781288Z"></path>
    <path d="M162.9253 99.781288C164.222178 100.043006 165.51515 100.558631 167.06983 101.46488C165.51515 100.300819 165.51515 99.265663 167.06983 98.09769C165.51515 99.003944 164.222178 99.523475 162.9253 99.781288Z" stroke="#000" fill="none" stroke-width="0.79701" stroke-miterlimit="10" stroke-linejoin="bevel"></path>
    <path d="M180.952941 91.5195C180.952941 88.86713 178.800595 86.71484 176.148251 86.71484C173.491998 86.71484 171.339659 88.86713 171.339659 91.5195C171.339659 94.175755 173.491998 96.324188 176.148251 96.324188C178.800595 96.324188 180.952941 94.175755 180.952941 91.5195Z" stroke="#000" fill="none" stroke-width="0.27895" stroke-miterlimit="10"></path>
    <text class="f1" x="242.069443" y="65.22007" transform="matrix(0.7 0 0 0.7 4.9557 48.11343)" style="white-space: pre;">2</text>
    <text class="f1" x="249.134061" y="60.147479" transform="matrix(0.7 0 0 0.7 6.69888 51.6643)" style="white-space: pre;">,</text>
    <path d="M195.105696 91.5195C195.105696 88.86713 192.95335 86.71484 190.301007 86.71484C187.64476 86.71484 185.492414 88.86713 185.492414 91.5195C185.492414 94.175755 187.64476 96.324188 190.301007 96.324188C192.95335 96.324188 195.105696 94.175755 195.105696 91.5195Z" stroke="#000" fill="none" stroke-width="0.27895" stroke-miterlimit="10"></path>
    <text class="f1" x="262.286962" y="65.22007" transform="matrix(0.7 0 0 0.7 4.9551 48.11343)" style="white-space: pre;">3</text>
    <text class="f1" x="269.35158" y="60.147479" transform="matrix(0.7 0 0 0.7 6.69888 51.6643)" style="white-space: pre;">,</text>
    <path d="M209.258137 91.5195C209.258137 88.86713 207.105791 86.71484 204.45345 86.71484C201.797201 86.71484 199.644855 88.86713 199.644855 91.5195C199.644855 94.175755 201.797201 96.324188 204.45345 96.324188C207.105791 96.324188 209.258137 94.175755 209.258137 91.5195Z" stroke="#000" fill="none" stroke-width="0.27895" stroke-miterlimit="10"></path>
    <text class="f1" x="282.504481" y="65.22007" transform="matrix(0.7 0 0 0.7 4.9552 48.11343)" style="white-space: pre;">5</text>
    <path d="M253.3711 99.7813H306.0469" stroke="#000" fill="none" stroke-width="0.79701" stroke-miterlimit="10"></path>
    <path d="M252.3355 99.781205C253.632376 100.039017 254.92534 100.558549 256.48003 101.4648C254.92534 100.300736 254.92534 99.26558 256.48003 98.09761C254.92534 99.003861 253.632376 99.523392 252.3355 99.781205Z"></path>
    <path d="M252.3355 99.781205C253.632376 100.039017 254.92534 100.558549 256.48003 101.4648C254.92534 100.300736 254.92534 99.26558 256.48003 98.09761C254.92534 99.003861 253.632376 99.523392 252.3355 99.781205Z" stroke="#000" fill="none" stroke-width="0.79701" stroke-miterlimit="10" stroke-linejoin="bevel"></path>
    <path d="M307.08248 99.781288C305.789516 99.523475 304.49264 99.003944 302.93795 98.09769C304.49264 99.265663 304.49264 100.300819 302.93795 101.46488C304.49264 100.558631 305.789516 100.043006 307.08248 99.781288Z"></path>
    <path d="M307.08248 99.781288C305.789516 99.523475 304.49264 99.003944 302.93795 98.09769C304.49264 99.265663 304.49264 100.300819 302.93795 101.46488C304.49264 100.558631 305.789516 100.043006 307.08248 99.781288Z" stroke="#000" fill="none" stroke-width="0.79701" stroke-miterlimit="10" stroke-linejoin="bevel"></path>
    <path d="M284.516088 91.5195C284.516088 88.86713 282.363749 86.71484 279.711404 86.71484C277.055152 86.71484 274.902813 88.86713 274.902813 91.5195C274.902813 94.175755 277.055152 96.324188 279.711404 96.324188C282.363749 96.324188 284.516088 94.175755 284.516088 91.5195Z" stroke="#000" fill="none" stroke-width="0.27895" stroke-miterlimit="10"></path>
    <text class="f1" x="242.069443" y="65.22007" transform="matrix(0.7 0 0 0.7 108.5177 48.11343)" style="white-space: pre;">4</text>
    <path d="M233.14062 111.9375L132.527 149.7188" stroke="#000" fill="none" stroke-width="0.79701" stroke-miterlimit="10"></path>
    <path d="M131.558858 150.081898C132.863547 149.870963 134.258077 149.898299 136.031519 150.202996C134.164329 149.656105 133.801046 148.687359 134.847922 147.050642C133.711204 148.445184 132.679954 149.382672 131.558858 150.081898Z"></path>
    <path d="M131.558858 150.081898C132.863547 149.870963 134.258077 149.898299 136.031519 150.202996C134.164329 149.656105 133.801046 148.687359 134.847922 147.050642C133.711204 148.445184 132.679954 149.382672 131.558858 150.081898Z" stroke="#000" fill="none" stroke-width="0.796961" stroke-miterlimit="10" stroke-linejoin="bevel"></path>
    <path d="M186.968424 122.816277C186.968424 120.1639 184.816085 118.01161 182.16374 118.01161C179.507488 118.01161 177.355149 120.1639 177.355149 122.816277C177.355149 125.472532 179.507488 127.620965 182.16374 127.620965C184.816085 127.620965 186.968424 125.472532 186.968424 122.816277Z" stroke="#000" fill="none" stroke-width="0.27895" stroke-miterlimit="10"></path>
    <text class="f1" x="242.069443" y="65.22007" transform="matrix(0.7 0 0 0.7 10.9707 79.40993)" style="white-space: pre;">6</text>
    <path d="M146.2539 162.3755H193.4375" stroke="#000" fill="none" stroke-width="0.79701" stroke-miterlimit="10"></path>
    <path d="M194.47616 162.374603C193.17928 162.116791 191.88631 161.59726 190.33162 160.69101C191.88631 161.855072 191.88631 162.894135 190.33162 164.0582C191.88631 163.151947 193.17928 162.632416 194.47616 162.374603Z"></path>
    <path d="M194.47616 162.374603C193.17928 162.116791 191.88631 161.59726 190.33162 160.69101C191.88631 161.855072 191.88631 162.894135 190.33162 164.0582C191.88631 163.151947 193.17928 162.632416 194.47616 162.374603Z" stroke="#000" fill="none" stroke-width="0.79701" stroke-miterlimit="10" stroke-linejoin="bevel"></path>
    <path d="M175.366925 154.113382C175.366925 151.46104 173.218485 149.30868 170.562237 149.30868C167.909895 149.30868 165.757549 151.46104 165.757549 154.113382C165.757549 156.769637 167.909895 158.91807 170.562237 158.91807C173.218485 158.91807 175.366925 156.769637 175.366925 154.113382Z" stroke="#000" fill="none" stroke-width="0.27895" stroke-miterlimit="10"></path>
    <text class="f1" x="242.069443" y="65.22007" transform="matrix(0.7 0 0 0.7 -0.6283 110.70693)" style="white-space: pre;">7</text>
    <path d="M235.003901 148.9297V114.6641" stroke="#000" fill="none" stroke-width="0.79701" stroke-miterlimit="10"></path>
    <path d="M235.003901 113.62473C234.746089 114.921605 234.226558 116.21457 233.32031 117.76926C234.488276 116.21457 235.523433 116.21457 236.6875 117.76926C235.781245 116.21457 235.26562 114.921605 235.003901 113.62473Z"></path>
    <path d="M235.003901 113.62473C234.746089 114.921605 234.226558 116.21457 233.32031 117.76926C234.488276 116.21457 235.523433 116.21457 236.6875 117.76926C235.781245 116.21457 235.26562 114.921605 235.003901 113.62473Z" stroke="#000" fill="none" stroke-width="0.79701" stroke-miterlimit="10" stroke-linejoin="bevel"></path>
    <path d="M248.07428 131.078481C248.07428 128.42614 245.92192 126.273794 243.265658 126.273794C240.613316 126.273794 238.460977 128.42614 238.460977 131.078481C238.460977 133.73473 240.613316 135.88317 243.265658 135.88317C245.92192 135.88317 248.07428 133.73473 248.07428 131.078481Z" stroke="#000" fill="none" stroke-width="0.27895" stroke-miterlimit="10"></path>
    <text class="f1" x="233.786676" y="56.937303" transform="matrix(0.7 0 0 0.7 77.8721 93.46989)" style="white-space: pre;">8</text>
    <path d="M274.9922 161.6365L319.5273 143.8086" stroke="#000" fill="none" stroke-width="0.79701" stroke-miterlimit="10"></path>
    <path d="M320.488117 143.422181C319.187336 143.664367 317.792804 143.664371 316.015462 143.39874C317.890463 143.902646 318.277182 144.863583 317.265464 146.523743C318.370927 145.105775 319.382653 144.144836 320.488117 143.422181Z"></path>
    <path d="M320.488117 143.422181C319.187336 143.664367 317.792804 143.664371 316.015462 143.39874C317.890463 143.902646 318.277182 144.863583 317.265464 146.523743C318.370927 145.105775 319.382653 144.144836 320.488117 143.422181Z" stroke="#000" fill="none" stroke-width="0.796973" stroke-miterlimit="10" stroke-linejoin="bevel"></path>
    <path d="M275.0937 162.7775L318.1406 171.6095" stroke="#000" fill="none" stroke-width="0.79701" stroke-miterlimit="10"></path>
    <path d="M319.156098 171.816588C317.937352 171.304857 316.773267 170.535326 315.433436 169.33611C316.722496 170.78923 316.515459 171.804854 314.757658 172.632998C316.460785 172.058776 317.835767 171.808764 319.156098 171.816588Z"></path>
    <path d="M319.156098 171.816588C317.937352 171.304857 316.773267 170.535326 315.433436 169.33611C316.722496 170.78923 316.515459 171.804854 314.757658 172.632998C316.460785 172.058776 317.835767 171.808764 319.156098 171.816588Z" stroke="#000" fill="none" stroke-width="0.796969" stroke-miterlimit="10" stroke-linejoin="bevel"></path>
  </g>
</svg>
