<svg width="479pt" height="306pt" viewBox="0.00 0.00 479.18 306.20" xmlns="http://www.w3.org/2000/svg" xmlns:xlink="http://www.w3.org/1999/xlink">
<g id="graph0" class="graph" transform="scale(1 1) rotate(0) translate(4 302.2)">
<title>Module Dependency Graph</title>
<polygon fill="white" stroke="none" points="-4,4 -4,-302.2 475.18,-302.2 475.18,4 -4,4"/>
<text text-anchor="middle" x="235.59" y="-8.2" font-family="Times,serif" font-size="14.00">Module Dependency Graph</text>
<!-- MyLib (Clang module) -->
<g id="node1" class="node">
<title>MyLib (Clang module)</title>
<path fill="none" stroke="black" d="M40.04,-124.3C40.04,-124.3 147.13,-124.3 147.13,-124.3 153.13,-124.3 159.13,-130.3 159.13,-136.3 159.13,-136.3 159.13,-161.9 159.13,-161.9 159.13,-167.9 153.13,-173.9 147.13,-173.9 147.13,-173.9 40.04,-173.9 40.04,-173.9 34.04,-173.9 28.04,-167.9 28.04,-161.9 28.04,-161.9 28.04,-136.3 28.04,-136.3 28.04,-130.3 34.04,-124.3 40.04,-124.3"/>
<text text-anchor="middle" x="93.59" y="-157.3" font-family="Times,serif" font-size="14.00">Type: Clang module</text>
<polyline fill="none" stroke="black" points="28.04,-149.1 159.13,-149.1"/>
<text text-anchor="middle" x="93.59" y="-132.5" font-family="Times,serif" font-size="14.00">Provides: MyLib</text>
</g>
<!-- main.cpp (Non&#45;module source) -->
<g id="node2" class="node">
<title>main.cpp (Non-module source)</title>
<path fill="none" stroke="black" d="M118.11,-25.3C118.11,-25.3 257.07,-25.3 257.07,-25.3 263.07,-25.3 269.07,-31.3 269.07,-37.3 269.07,-37.3 269.07,-62.9 269.07,-62.9 269.07,-68.9 263.07,-74.9 257.07,-74.9 257.07,-74.9 118.11,-74.9 118.11,-74.9 112.11,-74.9 106.11,-68.9 106.11,-62.9 106.11,-62.9 106.11,-37.3 106.11,-37.3 106.11,-31.3 112.11,-25.3 118.11,-25.3"/>
<text text-anchor="middle" x="187.59" y="-58.3" font-family="Times,serif" font-size="14.00">Type: Non-module source</text>
<polyline fill="none" stroke="black" points="106.11,-50.1 269.07,-50.1"/>
<text text-anchor="middle" x="187.59" y="-33.5" font-family="Times,serif" font-size="14.00">Filename: main.cpp</text>
</g>
<!-- MyLib (Clang module)&#45;&gt;main.cpp (Non&#45;module source) -->
<g id="edge1" class="edge">
<title>MyLib (Clang module)-&gt;main.cpp (Non-module source)</title>
<path fill="none" stroke="black" d="M116.82,-124.12C128.8,-111.76 143.57,-96.52 156.51,-83.17"/>
<polygon fill="black" stroke="black" points="158.8,-85.84 163.24,-76.22 153.77,-80.97 158.8,-85.84"/>
</g>
<!-- A (C++20 module) -->
<g id="node3" class="node">
<title>A (C++20 module)</title>
<path fill="none" stroke="black" d="M227.2,-111.9C227.2,-111.9 339.98,-111.9 339.98,-111.9 345.98,-111.9 351.98,-117.9 351.98,-123.9 351.98,-123.9 351.98,-174.3 351.98,-174.3 351.98,-180.3 345.98,-186.3 339.98,-186.3 339.98,-186.3 227.2,-186.3 227.2,-186.3 221.2,-186.3 215.2,-180.3 215.2,-174.3 215.2,-174.3 215.2,-123.9 215.2,-123.9 215.2,-117.9 221.2,-111.9 227.2,-111.9"/>
<text text-anchor="middle" x="283.59" y="-169.7" font-family="Times,serif" font-size="14.00">Type: C++20 module</text>
<polyline fill="none" stroke="black" points="215.2,-161.5 351.98,-161.5"/>
<text text-anchor="middle" x="283.59" y="-144.9" font-family="Times,serif" font-size="14.00">Provides: A</text>
<polyline fill="none" stroke="black" points="215.2,-136.7 351.98,-136.7"/>
<text text-anchor="middle" x="283.59" y="-120.1" font-family="Times,serif" font-size="14.00">Filename: A.cpp</text>
</g>
<!-- A (C++20 module)&#45;&gt;main.cpp (Non&#45;module source) -->
<g id="edge2" class="edge">
<title>A (C++20 module)-&gt;main.cpp (Non-module source)</title>
<path fill="none" stroke="black" d="M247.3,-111.43C238.11,-102.15 228.31,-92.25 219.37,-83.21"/>
<polygon fill="black" stroke="black" points="222.02,-80.91 212.5,-76.27 217.04,-85.84 222.02,-80.91"/>
</g>
<!-- std (C++20 module) -->
<g id="node4" class="node">
<title>std (C++20 module)</title>
<path fill="none" stroke="black" d="M12,-223.3C12,-223.3 459.18,-223.3 459.18,-223.3 465.18,-223.3 471.18,-229.3 471.18,-235.3 471.18,-235.3 471.18,-285.7 471.18,-285.7 471.18,-291.7 465.18,-297.7 459.18,-297.7 459.18,-297.7 12,-297.7 12,-297.7 6,-297.7 0,-291.7 0,-285.7 0,-285.7 0,-235.3 0,-235.3 0,-229.3 6,-223.3 12,-223.3"/>
<text text-anchor="middle" x="235.59" y="-281.1" font-family="Times,serif" font-size="14.00">Type: C++20 module</text>
<polyline fill="none" stroke="black" points="0,-272.9 471.18,-272.9"/>
<text text-anchor="middle" x="235.59" y="-256.3" font-family="Times,serif" font-size="14.00">Provides: std</text>
<polyline fill="none" stroke="black" points="0,-248.1 471.18,-248.1"/>
<text text-anchor="middle" x="235.59" y="-231.5" font-family="Times,serif" font-size="14.00">Filename: /usr/lib64/gcc/x86_64-suse-linux/15/../../../../include/c++/15/bits/std.cc</text>
</g>
<!-- std (C++20 module)&#45;&gt;main.cpp (Non&#45;module source) -->
<g id="edge3" class="edge">
<title>std (C++20 module)-&gt;main.cpp (Non-module source)</title>
<path fill="none" stroke="black" d="M219.08,-223.1C214.44,-211.67 209.79,-198.88 206.59,-186.8 197.71,-153.35 192.79,-114.1 190.19,-86.44"/>
<polygon fill="black" stroke="black" points="193.68,-86.14 189.32,-76.48 186.71,-86.75 193.68,-86.14"/>
</g>
<!-- std (C++20 module)&#45;&gt;A (C++20 module) -->
<g id="edge4" class="edge">
<title>std (C++20 module)-&gt;A (C++20 module)</title>
<path fill="none" stroke="black" d="M251.57,-223.07C255.22,-214.76 259.14,-205.82 262.95,-197.14"/>
<polygon fill="black" stroke="black" points="266.09,-198.69 266.9,-188.13 259.68,-195.88 266.09,-198.69"/>
</g>
</g>
</svg>